<mxfile host="app.diagrams.net" modified="2022-09-11T10:32:46.230Z" agent="5.0 (Macintosh; Intel Mac OS X 10_15_7) AppleWebKit/537.36 (KHTML, like Gecko) Chrome/104.0.0.0 Safari/537.36" etag="mqhG0QuyobMJ1ocMsd5I" version="20.3.0" type="github">
  <diagram id="kgpKYQtTHZ0yAKxKKP6v" name="Page-1">
    <mxGraphModel dx="946" dy="572" grid="1" gridSize="10" guides="1" tooltips="1" connect="1" arrows="1" fold="1" page="1" pageScale="1" pageWidth="850" pageHeight="1100" math="0" shadow="0">
      <root>
        <mxCell id="0" />
        <mxCell id="1" parent="0" />
        <mxCell id="Fmws5H5xc9VE_1VDq52l-55" value="" style="rounded=0;whiteSpace=wrap;html=1;dashed=1;fillColor=none;" vertex="1" parent="1">
          <mxGeometry x="210" y="209" width="420" height="310" as="geometry" />
        </mxCell>
        <mxCell id="Fmws5H5xc9VE_1VDq52l-4" value="" style="edgeStyle=orthogonalEdgeStyle;rounded=0;orthogonalLoop=1;jettySize=auto;html=1;" edge="1" parent="1" source="Fmws5H5xc9VE_1VDq52l-2" target="Fmws5H5xc9VE_1VDq52l-3">
          <mxGeometry relative="1" as="geometry" />
        </mxCell>
        <mxCell id="Fmws5H5xc9VE_1VDq52l-2" value="USER" style="shape=umlActor;verticalLabelPosition=bottom;verticalAlign=top;html=1;outlineConnect=0;" vertex="1" parent="1">
          <mxGeometry x="100" y="100" width="30" height="60" as="geometry" />
        </mxCell>
        <mxCell id="Fmws5H5xc9VE_1VDq52l-6" style="edgeStyle=orthogonalEdgeStyle;rounded=0;orthogonalLoop=1;jettySize=auto;html=1;exitX=1;exitY=0.5;exitDx=0;exitDy=0;entryX=0;entryY=0.5;entryDx=0;entryDy=0;" edge="1" parent="1" source="Fmws5H5xc9VE_1VDq52l-3" target="Fmws5H5xc9VE_1VDq52l-5">
          <mxGeometry relative="1" as="geometry">
            <Array as="points">
              <mxPoint x="310" y="130" />
              <mxPoint x="310" y="235" />
            </Array>
          </mxGeometry>
        </mxCell>
        <mxCell id="Fmws5H5xc9VE_1VDq52l-7" value="POST" style="edgeLabel;html=1;align=center;verticalAlign=middle;resizable=0;points=[];" vertex="1" connectable="0" parent="Fmws5H5xc9VE_1VDq52l-6">
          <mxGeometry x="-0.4545" y="3" relative="1" as="geometry">
            <mxPoint y="32" as="offset" />
          </mxGeometry>
        </mxCell>
        <mxCell id="Fmws5H5xc9VE_1VDq52l-10" style="edgeStyle=orthogonalEdgeStyle;rounded=0;orthogonalLoop=1;jettySize=auto;html=1;exitX=1;exitY=0.5;exitDx=0;exitDy=0;entryX=0;entryY=0.5;entryDx=0;entryDy=0;" edge="1" parent="1" source="Fmws5H5xc9VE_1VDq52l-3" target="Fmws5H5xc9VE_1VDq52l-8">
          <mxGeometry relative="1" as="geometry" />
        </mxCell>
        <mxCell id="Fmws5H5xc9VE_1VDq52l-3" value="Record/Upload sound file" style="whiteSpace=wrap;html=1;verticalAlign=top;" vertex="1" parent="1">
          <mxGeometry x="165" y="110" width="120" height="40" as="geometry" />
        </mxCell>
        <mxCell id="Fmws5H5xc9VE_1VDq52l-16" value="" style="edgeStyle=orthogonalEdgeStyle;rounded=0;orthogonalLoop=1;jettySize=auto;html=1;" edge="1" parent="1" source="Fmws5H5xc9VE_1VDq52l-5" target="Fmws5H5xc9VE_1VDq52l-15">
          <mxGeometry relative="1" as="geometry" />
        </mxCell>
        <mxCell id="Fmws5H5xc9VE_1VDq52l-44" style="edgeStyle=orthogonalEdgeStyle;rounded=0;orthogonalLoop=1;jettySize=auto;html=1;exitX=1;exitY=0.5;exitDx=0;exitDy=0;entryX=0.5;entryY=1;entryDx=0;entryDy=0;" edge="1" parent="1" source="Fmws5H5xc9VE_1VDq52l-5" target="Fmws5H5xc9VE_1VDq52l-8">
          <mxGeometry relative="1" as="geometry" />
        </mxCell>
        <mxCell id="Fmws5H5xc9VE_1VDq52l-45" value="GET" style="edgeLabel;html=1;align=center;verticalAlign=middle;resizable=0;points=[];" vertex="1" connectable="0" parent="Fmws5H5xc9VE_1VDq52l-44">
          <mxGeometry x="0.2452" y="1" relative="1" as="geometry">
            <mxPoint x="1" y="-18" as="offset" />
          </mxGeometry>
        </mxCell>
        <mxCell id="Fmws5H5xc9VE_1VDq52l-5" value="Flask/Django REST API" style="aspect=fixed;perimeter=ellipsePerimeter;html=1;align=center;shadow=0;dashed=0;spacingTop=3;image;image=img/lib/active_directory/web_server.svg;" vertex="1" parent="1">
          <mxGeometry x="290" y="210" width="40" height="50" as="geometry" />
        </mxCell>
        <mxCell id="Fmws5H5xc9VE_1VDq52l-36" style="edgeStyle=orthogonalEdgeStyle;rounded=0;orthogonalLoop=1;jettySize=auto;html=1;exitX=1;exitY=0.5;exitDx=0;exitDy=0;entryX=0;entryY=0.5;entryDx=0;entryDy=0;" edge="1" parent="1" source="Fmws5H5xc9VE_1VDq52l-8" target="Fmws5H5xc9VE_1VDq52l-30">
          <mxGeometry relative="1" as="geometry" />
        </mxCell>
        <mxCell id="Fmws5H5xc9VE_1VDq52l-8" value="List of trained models" style="whiteSpace=wrap;html=1;verticalAlign=top;" vertex="1" parent="1">
          <mxGeometry x="340" y="110" width="120" height="40" as="geometry" />
        </mxCell>
        <mxCell id="Fmws5H5xc9VE_1VDq52l-27" value="" style="edgeStyle=orthogonalEdgeStyle;rounded=0;orthogonalLoop=1;jettySize=auto;html=1;" edge="1" parent="1" source="Fmws5H5xc9VE_1VDq52l-15">
          <mxGeometry relative="1" as="geometry">
            <mxPoint x="310" y="410" as="targetPoint" />
          </mxGeometry>
        </mxCell>
        <mxCell id="Fmws5H5xc9VE_1VDq52l-15" value="Processing of provided samples to train model" style="whiteSpace=wrap;html=1;verticalAlign=top;shadow=0;dashed=0;spacingTop=3;labelBackgroundColor=default;" vertex="1" parent="1">
          <mxGeometry x="250" y="320" width="120" height="60" as="geometry" />
        </mxCell>
        <mxCell id="Fmws5H5xc9VE_1VDq52l-28" style="edgeStyle=orthogonalEdgeStyle;rounded=0;orthogonalLoop=1;jettySize=auto;html=1;exitX=0.5;exitY=1;exitDx=0;exitDy=0;" edge="1" parent="1">
          <mxGeometry relative="1" as="geometry">
            <mxPoint x="310" y="440" as="sourcePoint" />
            <mxPoint x="310" y="440" as="targetPoint" />
          </mxGeometry>
        </mxCell>
        <mxCell id="Fmws5H5xc9VE_1VDq52l-37" style="edgeStyle=orthogonalEdgeStyle;rounded=0;orthogonalLoop=1;jettySize=auto;html=1;exitX=0.5;exitY=0;exitDx=0;exitDy=0;entryX=0.5;entryY=0;entryDx=0;entryDy=0;" edge="1" parent="1" source="Fmws5H5xc9VE_1VDq52l-30" target="Fmws5H5xc9VE_1VDq52l-3">
          <mxGeometry relative="1" as="geometry" />
        </mxCell>
        <mxCell id="Fmws5H5xc9VE_1VDq52l-38" value="No" style="edgeLabel;html=1;align=center;verticalAlign=middle;resizable=0;points=[];" vertex="1" connectable="0" parent="Fmws5H5xc9VE_1VDq52l-37">
          <mxGeometry x="-0.8827" relative="1" as="geometry">
            <mxPoint x="12" y="10" as="offset" />
          </mxGeometry>
        </mxCell>
        <mxCell id="Fmws5H5xc9VE_1VDq52l-40" value="" style="edgeStyle=orthogonalEdgeStyle;rounded=0;orthogonalLoop=1;jettySize=auto;html=1;" edge="1" parent="1" source="Fmws5H5xc9VE_1VDq52l-30" target="Fmws5H5xc9VE_1VDq52l-39">
          <mxGeometry relative="1" as="geometry" />
        </mxCell>
        <mxCell id="Fmws5H5xc9VE_1VDq52l-30" value="model chosen?" style="rhombus;whiteSpace=wrap;html=1;verticalAlign=top;" vertex="1" parent="1">
          <mxGeometry x="500" y="105" width="80" height="50" as="geometry" />
        </mxCell>
        <mxCell id="Fmws5H5xc9VE_1VDq52l-32" value="Storage" style="shape=cylinder3;whiteSpace=wrap;html=1;boundedLbl=1;backgroundOutline=1;size=15;dashed=1;" vertex="1" parent="1">
          <mxGeometry x="280" y="410" width="60" height="80" as="geometry" />
        </mxCell>
        <mxCell id="Fmws5H5xc9VE_1VDq52l-47" style="edgeStyle=orthogonalEdgeStyle;rounded=0;orthogonalLoop=1;jettySize=auto;html=1;exitX=0.5;exitY=1;exitDx=0;exitDy=0;entryX=0.5;entryY=0;entryDx=0;entryDy=0;" edge="1" parent="1" source="Fmws5H5xc9VE_1VDq52l-39" target="Fmws5H5xc9VE_1VDq52l-46">
          <mxGeometry relative="1" as="geometry" />
        </mxCell>
        <mxCell id="Fmws5H5xc9VE_1VDq52l-48" value="POST" style="edgeLabel;html=1;align=center;verticalAlign=middle;resizable=0;points=[];" vertex="1" connectable="0" parent="Fmws5H5xc9VE_1VDq52l-47">
          <mxGeometry x="-0.2167" y="-1" relative="1" as="geometry">
            <mxPoint y="1" as="offset" />
          </mxGeometry>
        </mxCell>
        <mxCell id="Fmws5H5xc9VE_1VDq52l-39" value="Text to process" style="whiteSpace=wrap;html=1;verticalAlign=top;" vertex="1" parent="1">
          <mxGeometry x="480" y="173" width="120" height="30" as="geometry" />
        </mxCell>
        <mxCell id="Fmws5H5xc9VE_1VDq52l-52" value="" style="edgeStyle=orthogonalEdgeStyle;rounded=0;orthogonalLoop=1;jettySize=auto;html=1;" edge="1" parent="1" source="Fmws5H5xc9VE_1VDq52l-46" target="Fmws5H5xc9VE_1VDq52l-51">
          <mxGeometry relative="1" as="geometry" />
        </mxCell>
        <mxCell id="Fmws5H5xc9VE_1VDq52l-62" style="edgeStyle=orthogonalEdgeStyle;rounded=0;orthogonalLoop=1;jettySize=auto;html=1;entryX=0.5;entryY=1;entryDx=0;entryDy=0;" edge="1" parent="1" source="Fmws5H5xc9VE_1VDq52l-46" target="Fmws5H5xc9VE_1VDq52l-59">
          <mxGeometry relative="1" as="geometry" />
        </mxCell>
        <mxCell id="Fmws5H5xc9VE_1VDq52l-46" value="Flask/Django REST API" style="aspect=fixed;perimeter=ellipsePerimeter;html=1;align=center;shadow=0;dashed=0;spacingTop=3;image;image=img/lib/active_directory/web_server.svg;" vertex="1" parent="1">
          <mxGeometry x="520" y="290" width="40" height="50" as="geometry" />
        </mxCell>
        <mxCell id="Fmws5H5xc9VE_1VDq52l-53" style="edgeStyle=orthogonalEdgeStyle;rounded=0;orthogonalLoop=1;jettySize=auto;html=1;exitX=0;exitY=0.5;exitDx=0;exitDy=0;entryX=1;entryY=0.5;entryDx=0;entryDy=0;entryPerimeter=0;" edge="1" parent="1" source="Fmws5H5xc9VE_1VDq52l-51" target="Fmws5H5xc9VE_1VDq52l-32">
          <mxGeometry relative="1" as="geometry" />
        </mxCell>
        <mxCell id="Fmws5H5xc9VE_1VDq52l-54" value="GetModel" style="edgeLabel;html=1;align=center;verticalAlign=middle;resizable=0;points=[];" vertex="1" connectable="0" parent="Fmws5H5xc9VE_1VDq52l-53">
          <mxGeometry x="-0.0429" y="-4" relative="1" as="geometry">
            <mxPoint y="-5" as="offset" />
          </mxGeometry>
        </mxCell>
        <mxCell id="Fmws5H5xc9VE_1VDq52l-51" value="Process provided string to generate sound sample" style="whiteSpace=wrap;html=1;verticalAlign=top;shadow=0;dashed=0;spacingTop=3;labelBackgroundColor=default;" vertex="1" parent="1">
          <mxGeometry x="480" y="420" width="120" height="60" as="geometry" />
        </mxCell>
        <mxCell id="Fmws5H5xc9VE_1VDq52l-59" value="Result" style="ellipse;whiteSpace=wrap;html=1;aspect=fixed;dashed=1;fillColor=none;" vertex="1" parent="1">
          <mxGeometry x="620" y="88" width="80" height="80" as="geometry" />
        </mxCell>
        <mxCell id="Fmws5H5xc9VE_1VDq52l-63" value="&lt;h1&gt;Voice cloning and reading process&lt;/h1&gt;&lt;p&gt;1. Do komunikacji pomiędzy aplikacją a backendem możemy użyć REST API.&amp;nbsp;&lt;/p&gt;&lt;p&gt;2. Duże uproszczenie na start - wykorzystanie KIVY czyli biblioteki pythonowej która pozwala stworzyć całą aplikację na androida (nie wiem jak z IOS). Może w prosty sposób zrobić demo apki. Poniżej link do przykładowej apki która nagrywa i odtwarza dźwięk&lt;/p&gt;&lt;p&gt;https://www.youtube.com/watch?v=5mdVrox493Q&lt;br&gt;&lt;/p&gt;" style="text;html=1;strokeColor=none;fillColor=none;spacing=5;spacingTop=-20;whiteSpace=wrap;overflow=hidden;rounded=0;dashed=1;" vertex="1" parent="1">
          <mxGeometry x="40" y="530" width="570" height="160" as="geometry" />
        </mxCell>
      </root>
    </mxGraphModel>
  </diagram>
</mxfile>
